<mxfile host="app.diagrams.net" modified="2022-02-14T20:32:40.090Z" agent="5.0 (Windows NT 10.0; Win64; x64) AppleWebKit/537.36 (KHTML, like Gecko) Chrome/97.0.4692.99 Safari/537.36 OPR/83.0.4254.46" etag="T_H_sjnSTHaZwD9Xj-wj" version="16.5.6" type="github">
  <diagram id="C5RBs43oDa-KdzZeNtuy" name="Page-1">
    <mxGraphModel dx="952" dy="527" grid="1" gridSize="10" guides="1" tooltips="1" connect="1" arrows="1" fold="1" page="1" pageScale="1" pageWidth="827" pageHeight="1169" math="0" shadow="0">
      <root>
        <mxCell id="WIyWlLk6GJQsqaUBKTNV-0" />
        <mxCell id="WIyWlLk6GJQsqaUBKTNV-1" parent="WIyWlLk6GJQsqaUBKTNV-0" />
        <mxCell id="HOjpR-oxfHX7dsRO8wp4-8" style="edgeStyle=orthogonalEdgeStyle;rounded=0;orthogonalLoop=1;jettySize=auto;html=1;exitX=0.5;exitY=1;exitDx=0;exitDy=0;exitPerimeter=0;startArrow=none;" edge="1" parent="WIyWlLk6GJQsqaUBKTNV-1" source="HOjpR-oxfHX7dsRO8wp4-2">
          <mxGeometry relative="1" as="geometry">
            <mxPoint x="399.7241379310344" y="100" as="targetPoint" />
          </mxGeometry>
        </mxCell>
        <mxCell id="HOjpR-oxfHX7dsRO8wp4-0" value="Start" style="strokeWidth=1;html=1;shape=mxgraph.flowchart.terminator;whiteSpace=wrap;rounded=1;" vertex="1" parent="WIyWlLk6GJQsqaUBKTNV-1">
          <mxGeometry x="370" y="20" width="60" height="30" as="geometry" />
        </mxCell>
        <mxCell id="HOjpR-oxfHX7dsRO8wp4-5" style="edgeStyle=orthogonalEdgeStyle;rounded=0;orthogonalLoop=1;jettySize=auto;html=1;exitX=0;exitY=0.5;exitDx=0;exitDy=0;exitPerimeter=0;entryX=0.5;entryY=0;entryDx=0;entryDy=0;" edge="1" parent="WIyWlLk6GJQsqaUBKTNV-1" source="HOjpR-oxfHX7dsRO8wp4-1" target="HOjpR-oxfHX7dsRO8wp4-4">
          <mxGeometry relative="1" as="geometry" />
        </mxCell>
        <mxCell id="HOjpR-oxfHX7dsRO8wp4-16" value="0" style="edgeLabel;html=1;align=center;verticalAlign=middle;resizable=0;points=[];" vertex="1" connectable="0" parent="HOjpR-oxfHX7dsRO8wp4-5">
          <mxGeometry x="-0.3003" y="-2" relative="1" as="geometry">
            <mxPoint x="24" y="17" as="offset" />
          </mxGeometry>
        </mxCell>
        <mxCell id="HOjpR-oxfHX7dsRO8wp4-12" style="edgeStyle=orthogonalEdgeStyle;rounded=0;orthogonalLoop=1;jettySize=auto;html=1;exitX=1;exitY=0.5;exitDx=0;exitDy=0;exitPerimeter=0;" edge="1" parent="WIyWlLk6GJQsqaUBKTNV-1" source="HOjpR-oxfHX7dsRO8wp4-1" target="HOjpR-oxfHX7dsRO8wp4-11">
          <mxGeometry relative="1" as="geometry" />
        </mxCell>
        <mxCell id="HOjpR-oxfHX7dsRO8wp4-17" value="1" style="edgeLabel;html=1;align=center;verticalAlign=middle;resizable=0;points=[];" vertex="1" connectable="0" parent="HOjpR-oxfHX7dsRO8wp4-12">
          <mxGeometry x="-0.7715" y="2" relative="1" as="geometry">
            <mxPoint y="17" as="offset" />
          </mxGeometry>
        </mxCell>
        <mxCell id="HOjpR-oxfHX7dsRO8wp4-1" value="zustand = ?" style="strokeWidth=1;html=1;shape=mxgraph.flowchart.decision;whiteSpace=wrap;rounded=1;strokeColor=default;" vertex="1" parent="WIyWlLk6GJQsqaUBKTNV-1">
          <mxGeometry x="365" y="100" width="70" height="70" as="geometry" />
        </mxCell>
        <mxCell id="HOjpR-oxfHX7dsRO8wp4-10" style="edgeStyle=orthogonalEdgeStyle;rounded=0;orthogonalLoop=1;jettySize=auto;html=1;exitX=0.5;exitY=1;exitDx=0;exitDy=0;entryX=0.5;entryY=0;entryDx=0;entryDy=0;entryPerimeter=0;" edge="1" parent="WIyWlLk6GJQsqaUBKTNV-1" source="HOjpR-oxfHX7dsRO8wp4-2" target="HOjpR-oxfHX7dsRO8wp4-1">
          <mxGeometry relative="1" as="geometry" />
        </mxCell>
        <mxCell id="HOjpR-oxfHX7dsRO8wp4-9" style="edgeStyle=orthogonalEdgeStyle;rounded=0;orthogonalLoop=1;jettySize=auto;html=1;exitX=0.5;exitY=1;exitDx=0;exitDy=0;entryX=0;entryY=0.5;entryDx=0;entryDy=0;entryPerimeter=0;" edge="1" parent="WIyWlLk6GJQsqaUBKTNV-1" source="HOjpR-oxfHX7dsRO8wp4-4" target="HOjpR-oxfHX7dsRO8wp4-0">
          <mxGeometry relative="1" as="geometry">
            <Array as="points">
              <mxPoint x="328" y="210" />
              <mxPoint x="280" y="210" />
              <mxPoint x="280" y="35" />
            </Array>
          </mxGeometry>
        </mxCell>
        <mxCell id="HOjpR-oxfHX7dsRO8wp4-4" value="anhalten()" style="shape=process;whiteSpace=wrap;html=1;backgroundOutline=1;rounded=0;strokeColor=default;strokeWidth=1;" vertex="1" parent="WIyWlLk6GJQsqaUBKTNV-1">
          <mxGeometry x="290" y="180" width="75" height="20" as="geometry" />
        </mxCell>
        <mxCell id="HOjpR-oxfHX7dsRO8wp4-14" style="edgeStyle=orthogonalEdgeStyle;rounded=0;orthogonalLoop=1;jettySize=auto;html=1;exitX=0.5;exitY=1;exitDx=0;exitDy=0;entryX=0.5;entryY=0;entryDx=0;entryDy=0;entryPerimeter=0;" edge="1" parent="WIyWlLk6GJQsqaUBKTNV-1" source="HOjpR-oxfHX7dsRO8wp4-11" target="HOjpR-oxfHX7dsRO8wp4-13">
          <mxGeometry relative="1" as="geometry" />
        </mxCell>
        <mxCell id="HOjpR-oxfHX7dsRO8wp4-11" value="dauerScan(15)" style="shape=process;whiteSpace=wrap;html=1;backgroundOutline=1;rounded=0;strokeColor=default;strokeWidth=1;" vertex="1" parent="WIyWlLk6GJQsqaUBKTNV-1">
          <mxGeometry x="440" y="180" width="100" height="20" as="geometry" />
        </mxCell>
        <mxCell id="HOjpR-oxfHX7dsRO8wp4-19" style="edgeStyle=orthogonalEdgeStyle;rounded=0;orthogonalLoop=1;jettySize=auto;html=1;exitX=0;exitY=0.5;exitDx=0;exitDy=0;exitPerimeter=0;entryX=0.5;entryY=0;entryDx=0;entryDy=0;" edge="1" parent="WIyWlLk6GJQsqaUBKTNV-1" source="HOjpR-oxfHX7dsRO8wp4-13" target="HOjpR-oxfHX7dsRO8wp4-18">
          <mxGeometry relative="1" as="geometry" />
        </mxCell>
        <mxCell id="HOjpR-oxfHX7dsRO8wp4-22" style="edgeStyle=orthogonalEdgeStyle;rounded=0;orthogonalLoop=1;jettySize=auto;html=1;exitX=1;exitY=0.5;exitDx=0;exitDy=0;exitPerimeter=0;entryX=0.5;entryY=0;entryDx=0;entryDy=0;" edge="1" parent="WIyWlLk6GJQsqaUBKTNV-1" source="HOjpR-oxfHX7dsRO8wp4-13" target="HOjpR-oxfHX7dsRO8wp4-20">
          <mxGeometry relative="1" as="geometry" />
        </mxCell>
        <mxCell id="HOjpR-oxfHX7dsRO8wp4-13" value="kurz = false" style="strokeWidth=1;html=1;shape=mxgraph.flowchart.decision;whiteSpace=wrap;rounded=1;strokeColor=default;" vertex="1" parent="WIyWlLk6GJQsqaUBKTNV-1">
          <mxGeometry x="455" y="210" width="70" height="70" as="geometry" />
        </mxCell>
        <mxCell id="HOjpR-oxfHX7dsRO8wp4-25" style="edgeStyle=orthogonalEdgeStyle;rounded=0;orthogonalLoop=1;jettySize=auto;html=1;exitX=0.5;exitY=1;exitDx=0;exitDy=0;entryX=0.5;entryY=0;entryDx=0;entryDy=0;entryPerimeter=0;" edge="1" parent="WIyWlLk6GJQsqaUBKTNV-1" source="HOjpR-oxfHX7dsRO8wp4-18" target="HOjpR-oxfHX7dsRO8wp4-24">
          <mxGeometry relative="1" as="geometry" />
        </mxCell>
        <mxCell id="HOjpR-oxfHX7dsRO8wp4-18" value="scan(45)" style="shape=process;whiteSpace=wrap;html=1;backgroundOutline=1;rounded=0;strokeColor=default;strokeWidth=1;" vertex="1" parent="WIyWlLk6GJQsqaUBKTNV-1">
          <mxGeometry x="380" y="290" width="75" height="20" as="geometry" />
        </mxCell>
        <mxCell id="HOjpR-oxfHX7dsRO8wp4-23" style="edgeStyle=orthogonalEdgeStyle;rounded=0;orthogonalLoop=1;jettySize=auto;html=1;exitX=1;exitY=0.5;exitDx=0;exitDy=0;entryX=1;entryY=0.5;entryDx=0;entryDy=0;entryPerimeter=0;" edge="1" parent="WIyWlLk6GJQsqaUBKTNV-1" source="HOjpR-oxfHX7dsRO8wp4-20" target="HOjpR-oxfHX7dsRO8wp4-0">
          <mxGeometry relative="1" as="geometry" />
        </mxCell>
        <mxCell id="HOjpR-oxfHX7dsRO8wp4-20" value="geradeausfahren()" style="shape=process;whiteSpace=wrap;html=1;backgroundOutline=1;rounded=0;strokeColor=default;strokeWidth=1;" vertex="1" parent="WIyWlLk6GJQsqaUBKTNV-1">
          <mxGeometry x="525" y="290" width="125" height="20" as="geometry" />
        </mxCell>
        <mxCell id="HOjpR-oxfHX7dsRO8wp4-27" style="edgeStyle=orthogonalEdgeStyle;rounded=0;orthogonalLoop=1;jettySize=auto;html=1;exitX=1;exitY=0.5;exitDx=0;exitDy=0;exitPerimeter=0;entryX=0.5;entryY=0;entryDx=0;entryDy=0;" edge="1" parent="WIyWlLk6GJQsqaUBKTNV-1" source="HOjpR-oxfHX7dsRO8wp4-24" target="HOjpR-oxfHX7dsRO8wp4-26">
          <mxGeometry relative="1" as="geometry" />
        </mxCell>
        <mxCell id="HOjpR-oxfHX7dsRO8wp4-29" style="edgeStyle=orthogonalEdgeStyle;rounded=0;orthogonalLoop=1;jettySize=auto;html=1;exitX=0;exitY=0.5;exitDx=0;exitDy=0;exitPerimeter=0;entryX=0.5;entryY=0;entryDx=0;entryDy=0;entryPerimeter=0;" edge="1" parent="WIyWlLk6GJQsqaUBKTNV-1" source="HOjpR-oxfHX7dsRO8wp4-24" target="HOjpR-oxfHX7dsRO8wp4-28">
          <mxGeometry relative="1" as="geometry" />
        </mxCell>
        <mxCell id="HOjpR-oxfHX7dsRO8wp4-24" value="kurz = true" style="strokeWidth=1;html=1;shape=mxgraph.flowchart.decision;whiteSpace=wrap;rounded=1;strokeColor=default;" vertex="1" parent="WIyWlLk6GJQsqaUBKTNV-1">
          <mxGeometry x="382.5" y="320" width="70" height="70" as="geometry" />
        </mxCell>
        <mxCell id="HOjpR-oxfHX7dsRO8wp4-26" value="dauerScan(15)" style="shape=process;whiteSpace=wrap;html=1;backgroundOutline=1;rounded=0;strokeColor=default;strokeWidth=1;" vertex="1" parent="WIyWlLk6GJQsqaUBKTNV-1">
          <mxGeometry x="450" y="400" width="100" height="20" as="geometry" />
        </mxCell>
        <mxCell id="HOjpR-oxfHX7dsRO8wp4-31" style="edgeStyle=orthogonalEdgeStyle;rounded=0;orthogonalLoop=1;jettySize=auto;html=1;exitX=1;exitY=0.5;exitDx=0;exitDy=0;exitPerimeter=0;entryX=0.5;entryY=0;entryDx=0;entryDy=0;entryPerimeter=0;" edge="1" parent="WIyWlLk6GJQsqaUBKTNV-1" source="HOjpR-oxfHX7dsRO8wp4-28" target="HOjpR-oxfHX7dsRO8wp4-30">
          <mxGeometry relative="1" as="geometry" />
        </mxCell>
        <mxCell id="HOjpR-oxfHX7dsRO8wp4-34" style="edgeStyle=orthogonalEdgeStyle;rounded=0;orthogonalLoop=1;jettySize=auto;html=1;exitX=0;exitY=0.5;exitDx=0;exitDy=0;exitPerimeter=0;entryX=0.5;entryY=0;entryDx=0;entryDy=0;" edge="1" parent="WIyWlLk6GJQsqaUBKTNV-1" source="HOjpR-oxfHX7dsRO8wp4-28" target="HOjpR-oxfHX7dsRO8wp4-33">
          <mxGeometry relative="1" as="geometry" />
        </mxCell>
        <mxCell id="HOjpR-oxfHX7dsRO8wp4-28" value="rd &amp;gt; ld" style="strokeWidth=1;html=1;shape=mxgraph.flowchart.decision;whiteSpace=wrap;rounded=1;strokeColor=default;" vertex="1" parent="WIyWlLk6GJQsqaUBKTNV-1">
          <mxGeometry x="315" y="400" width="70" height="70" as="geometry" />
        </mxCell>
        <mxCell id="HOjpR-oxfHX7dsRO8wp4-36" style="edgeStyle=orthogonalEdgeStyle;rounded=0;orthogonalLoop=1;jettySize=auto;html=1;exitX=0;exitY=0.5;exitDx=0;exitDy=0;exitPerimeter=0;entryX=0.5;entryY=0;entryDx=0;entryDy=0;" edge="1" parent="WIyWlLk6GJQsqaUBKTNV-1" source="HOjpR-oxfHX7dsRO8wp4-30" target="HOjpR-oxfHX7dsRO8wp4-35">
          <mxGeometry relative="1" as="geometry" />
        </mxCell>
        <mxCell id="HOjpR-oxfHX7dsRO8wp4-38" style="edgeStyle=orthogonalEdgeStyle;rounded=0;orthogonalLoop=1;jettySize=auto;html=1;exitX=1;exitY=0.5;exitDx=0;exitDy=0;exitPerimeter=0;entryX=0.5;entryY=0;entryDx=0;entryDy=0;" edge="1" parent="WIyWlLk6GJQsqaUBKTNV-1" source="HOjpR-oxfHX7dsRO8wp4-30" target="HOjpR-oxfHX7dsRO8wp4-37">
          <mxGeometry relative="1" as="geometry" />
        </mxCell>
        <mxCell id="HOjpR-oxfHX7dsRO8wp4-30" value="ld &amp;gt; rd" style="strokeWidth=1;html=1;shape=mxgraph.flowchart.decision;whiteSpace=wrap;rounded=1;strokeColor=default;" vertex="1" parent="WIyWlLk6GJQsqaUBKTNV-1">
          <mxGeometry x="382.5" y="480" width="70" height="70" as="geometry" />
        </mxCell>
        <mxCell id="HOjpR-oxfHX7dsRO8wp4-48" style="edgeStyle=orthogonalEdgeStyle;rounded=0;orthogonalLoop=1;jettySize=auto;html=1;exitX=0.5;exitY=1;exitDx=0;exitDy=0;entryX=0.5;entryY=0;entryDx=0;entryDy=0;" edge="1" parent="WIyWlLk6GJQsqaUBKTNV-1" source="HOjpR-oxfHX7dsRO8wp4-33" target="HOjpR-oxfHX7dsRO8wp4-39">
          <mxGeometry relative="1" as="geometry" />
        </mxCell>
        <mxCell id="HOjpR-oxfHX7dsRO8wp4-33" value="kurvefahren()" style="shape=process;whiteSpace=wrap;html=1;backgroundOutline=1;rounded=0;strokeColor=default;strokeWidth=1;" vertex="1" parent="WIyWlLk6GJQsqaUBKTNV-1">
          <mxGeometry x="170" y="565" width="100" height="20" as="geometry" />
        </mxCell>
        <mxCell id="HOjpR-oxfHX7dsRO8wp4-47" style="edgeStyle=orthogonalEdgeStyle;rounded=0;orthogonalLoop=1;jettySize=auto;html=1;exitX=0.5;exitY=1;exitDx=0;exitDy=0;entryX=0.5;entryY=0;entryDx=0;entryDy=0;" edge="1" parent="WIyWlLk6GJQsqaUBKTNV-1" source="HOjpR-oxfHX7dsRO8wp4-35" target="HOjpR-oxfHX7dsRO8wp4-39">
          <mxGeometry relative="1" as="geometry" />
        </mxCell>
        <mxCell id="HOjpR-oxfHX7dsRO8wp4-35" value="kurvefahren()" style="shape=process;whiteSpace=wrap;html=1;backgroundOutline=1;rounded=0;strokeColor=default;strokeWidth=1;" vertex="1" parent="WIyWlLk6GJQsqaUBKTNV-1">
          <mxGeometry x="282.5" y="565" width="100" height="20" as="geometry" />
        </mxCell>
        <mxCell id="HOjpR-oxfHX7dsRO8wp4-46" style="edgeStyle=orthogonalEdgeStyle;rounded=0;orthogonalLoop=1;jettySize=auto;html=1;exitX=0.5;exitY=1;exitDx=0;exitDy=0;entryX=0.5;entryY=0;entryDx=0;entryDy=0;" edge="1" parent="WIyWlLk6GJQsqaUBKTNV-1" source="HOjpR-oxfHX7dsRO8wp4-37" target="HOjpR-oxfHX7dsRO8wp4-39">
          <mxGeometry relative="1" as="geometry" />
        </mxCell>
        <mxCell id="HOjpR-oxfHX7dsRO8wp4-37" value="kurvefahren()" style="shape=process;whiteSpace=wrap;html=1;backgroundOutline=1;rounded=0;strokeColor=default;strokeWidth=1;" vertex="1" parent="WIyWlLk6GJQsqaUBKTNV-1">
          <mxGeometry x="450" y="565" width="100" height="20" as="geometry" />
        </mxCell>
        <mxCell id="HOjpR-oxfHX7dsRO8wp4-42" style="edgeStyle=orthogonalEdgeStyle;rounded=0;orthogonalLoop=1;jettySize=auto;html=1;exitX=0.5;exitY=1;exitDx=0;exitDy=0;entryX=0.5;entryY=0;entryDx=0;entryDy=0;entryPerimeter=0;" edge="1" parent="WIyWlLk6GJQsqaUBKTNV-1" source="HOjpR-oxfHX7dsRO8wp4-39" target="HOjpR-oxfHX7dsRO8wp4-40">
          <mxGeometry relative="1" as="geometry" />
        </mxCell>
        <mxCell id="HOjpR-oxfHX7dsRO8wp4-39" value="rd = 0&lt;br&gt;ld = 0&lt;br&gt;r = 0&lt;br&gt;l = 0" style="rounded=0;whiteSpace=wrap;html=1;absoluteArcSize=1;arcSize=14;strokeWidth=1;" vertex="1" parent="WIyWlLk6GJQsqaUBKTNV-1">
          <mxGeometry x="380" y="630" width="80" height="70" as="geometry" />
        </mxCell>
        <mxCell id="HOjpR-oxfHX7dsRO8wp4-40" value="Stop" style="strokeWidth=1;html=1;shape=mxgraph.flowchart.terminator;whiteSpace=wrap;rounded=1;" vertex="1" parent="WIyWlLk6GJQsqaUBKTNV-1">
          <mxGeometry x="390" y="720" width="60" height="30" as="geometry" />
        </mxCell>
        <mxCell id="HOjpR-oxfHX7dsRO8wp4-2" value="mqttAbrufen()" style="shape=process;whiteSpace=wrap;html=1;backgroundOutline=1;rounded=0;strokeColor=default;strokeWidth=1;" vertex="1" parent="WIyWlLk6GJQsqaUBKTNV-1">
          <mxGeometry x="345" y="60" width="110" height="20" as="geometry" />
        </mxCell>
        <mxCell id="HOjpR-oxfHX7dsRO8wp4-49" value="" style="edgeStyle=orthogonalEdgeStyle;rounded=0;orthogonalLoop=1;jettySize=auto;html=1;exitX=0.5;exitY=1;exitDx=0;exitDy=0;exitPerimeter=0;endArrow=none;" edge="1" parent="WIyWlLk6GJQsqaUBKTNV-1" source="HOjpR-oxfHX7dsRO8wp4-0" target="HOjpR-oxfHX7dsRO8wp4-2">
          <mxGeometry relative="1" as="geometry">
            <mxPoint x="399.7241379310344" y="100" as="targetPoint" />
            <mxPoint x="400" y="50" as="sourcePoint" />
          </mxGeometry>
        </mxCell>
      </root>
    </mxGraphModel>
  </diagram>
</mxfile>
